<?xml version="1.0" standalone="no"?>
 <!DOCTYPE svg PUBLIC "-//W3C//DTD SVG 1.1//EN" 
 "http://www.w3.org/Graphics/SVG/1.1/DTD/svg11.dtd"> 
<svg
  xmlns:svg="http://www.w3.org/2000/svg"
  xmlns="http://www.w3.org/2000/svg"
  xmlns:xlink="http://www.w3.org/1999/xlink"
  version="1.1"
  width="297.0022mm" height="210.0072mm" viewBox="0.0000 0.0000 297.0022 210.0072">
<title>SVG Image created as rp2040-led-board-schematics-v01-Edge_Cuts.svg date 2024/01/18 09:51:31 </title>
  <desc>Image generated by PCBNEW </desc>
<g style="fill:#000000; fill-opacity:1.0000;stroke:#000000; stroke-opacity:1.0000;
stroke-linecap:round; stroke-linejoin:round;"
 transform="translate(0 0) scale(1 1)">
</g>
<g style="fill:#000000; fill-opacity:0.0; 
stroke:#000000; stroke-width:0.0000; stroke-opacity:1; 
stroke-linecap:round; stroke-linejoin:round;">
</g>
<g style="fill:#000000; fill-opacity:0.0; 
stroke:#000000; stroke-width:0.1000; stroke-opacity:1; 
stroke-linecap:round; stroke-linejoin:round;">
<path d="M261.0000 140.0000
L261.0000 142.0000
" />
<path d="M199.0000 54.0000
L209.0000 54.0000
" />
<path d="M176.0000 56.0000
L165.0000 56.0000
" />
<path d="M245.0000 97.0000
L245.0000 56.0000
" />
<path d="M159.0000 142.0000
L159.0000 140.0000
" />
<path d="M245.0000 140.0000
L238.0000 140.0000
" />
<path d="M245.0000 140.0000
L245.0000 99.0000
" />
<path d="M255.0000 56.0000
L255.0000 54.0000
" />
<path d="M238.0000 56.0000
L238.0000 54.0000
" />
<path d="M127.0000 140.0000
L139.0000 140.0000
" />
<path d="M145.0000 62.0000
L145.0000 134.0000
" />
<path d="M40.0000 134.0000 A6.0000 6.0000 0.0 0 0 46.0000 140.0000" />
<path d="M159.0000 140.0000
L148.0000 140.0000
" />
<path d="M58.0000 56.0000
L58.0000 54.0000
" />
<path d="M165.0000 54.0000
L186.0000 54.0000
" />
<path d="M215.0000 99.0000
L215.0000 97.0000
" />
<path d="M232.0000 140.0000
L232.0000 142.0000
" />
<path d="M255.0000 140.0000
L255.0000 142.0000
" />
<path d="M186.0000 56.0000
L186.0000 54.0000
" />
<path d="M179.0000 99.0000
L186.0000 99.0000
" />
<path d="M238.0000 140.0000
L238.0000 142.0000
" />
<path d="M222.0000 142.0000
L232.0000 142.0000
" />
<path d="M225.0000 99.0000
L232.0000 99.0000
" />
<path d="M127.0000 140.0000
L127.0000 142.0000
" />
<path d="M139.0000 140.0000 A6.0000 6.0000 0.0 0 0 145.0000 134.0000" />
<path d="M46.0000 56.0000 A6.0000 6.0000 0.0 0 0 40.0000 62.0000" />
<path d="M58.0000 142.0000
L58.0000 140.0000
" />
<path d="M215.0000 99.0000
L222.0000 99.0000
" />
<path d="M261.0000 99.0000
L268.0000 99.0000
" />
<path d="M222.0000 97.0000
L222.0000 56.0000
" />
<path d="M165.0000 140.0000
L165.0000 142.0000
" />
<path d="M268.0000 97.0000
L268.0000 56.0000
" />
<path d="M248.0000 140.0000
L248.0000 99.0000
" />
<path d="M145.0000 62.0000 A6.0000 6.0000 0.0 0 0 139.0000 56.0000" />
<path d="M199.0000 142.0000
L209.0000 142.0000
" />
<path d="M202.0000 140.0000
L202.0000 99.0000
" />
<path d="M215.0000 56.0000
L215.0000 54.0000
" />
<path d="M255.0000 97.0000
L255.0000 99.0000
" />
<path d="M127.0000 56.0000
L127.0000 54.0000
" />
<path d="M199.0000 97.0000
L199.0000 56.0000
" />
<path d="M268.0000 142.0000
L268.0000 147.0000
" />
<path d="M192.0000 97.0000
L192.0000 99.0000
" />
<path d="M222.0000 140.0000
L222.0000 99.0000
" />
<path d="M245.0000 97.0000
L238.0000 97.0000
" />
<path d="M255.0000 140.0000
L248.0000 140.0000
" />
<path d="M202.0000 99.0000
L209.0000 99.0000
" />
<path d="M268.0000 147.0000
L40.0000 147.0000
" />
<path d="M176.0000 140.0000
L165.0000 140.0000
" />
<path d="M165.0000 142.0000
L186.0000 142.0000
" />
<path d="M222.0000 54.0000
L215.0000 54.0000
" />
<path d="M40.0000 142.0000
L58.0000 142.0000
" />
<path d="M232.0000 97.0000
L232.0000 99.0000
" />
<path d="M199.0000 97.0000
L192.0000 97.0000
" />
<path d="M40.0000 54.0000
L40.0000 49.0000
" />
<path d="M222.0000 140.0000
L215.0000 140.0000
" />
<path d="M215.0000 140.0000
L215.0000 142.0000
" />
<path d="M232.0000 56.0000
L225.0000 56.0000
" />
<path d="M232.0000 140.0000
L225.0000 140.0000
" />
<path d="M255.0000 97.0000
L248.0000 97.0000
" />
<path d="M40.0000 62.0000
L40.0000 134.0000
" />
<path d="M209.0000 140.0000
L202.0000 140.0000
" />
<path d="M222.0000 54.0000
L232.0000 54.0000
" />
<path d="M261.0000 97.0000
L261.0000 99.0000
" />
<path d="M58.0000 54.0000
L40.0000 54.0000
" />
<path d="M186.0000 142.0000
L186.0000 140.0000
" />
<path d="M186.0000 97.0000
L186.0000 99.0000
" />
<path d="M225.0000 140.0000
L225.0000 99.0000
" />
<path d="M192.0000 56.0000
L192.0000 54.0000
" />
<path d="M139.0000 56.0000
L127.0000 56.0000
" />
<path style="fill:#000000; fill-opacity:0.0; 
stroke:#000000; stroke-width:0.1000; stroke-opacity:1; 
stroke-linecap:round; stroke-linejoin:round;fill:none"
d="M 64.0000,140.0000
121.0000,140.0000
121.0000,142.0000
64.0000,142.0000
Z" /> 
<path d="M268.0000 54.0000
L261.0000 54.0000
" />
<path d="M215.0000 56.0000
L222.0000 56.0000
" />
<path d="M199.0000 54.0000
L192.0000 54.0000
" />
<path d="M165.0000 56.0000
L165.0000 54.0000
" />
<path d="M40.0000 49.0000
L268.0000 49.0000
" />
<path d="M199.0000 140.0000
L199.0000 99.0000
" />
<path d="M159.0000 54.0000
L159.0000 56.0000
" />
<path d="M209.0000 56.0000
L209.0000 54.0000
" />
<path d="M245.0000 142.0000
L255.0000 142.0000
" />
<path d="M245.0000 54.0000
L255.0000 54.0000
" />
<path d="M225.0000 97.0000
L225.0000 56.0000
" />
<path d="M248.0000 97.0000
L248.0000 56.0000
" />
<path d="M238.0000 99.0000
L245.0000 99.0000
" />
<path d="M199.0000 140.0000
L192.0000 140.0000
" />
<path d="M245.0000 54.0000
L238.0000 54.0000
" />
<path d="M255.0000 56.0000
L248.0000 56.0000
" />
<path d="M232.0000 56.0000
L232.0000 54.0000
" />
<path d="M46.0000 56.0000
L58.0000 56.0000
" />
<path d="M192.0000 99.0000
L199.0000 99.0000
" />
<path d="M186.0000 97.0000
L179.0000 97.0000
" />
<path d="M268.0000 140.0000
L268.0000 99.0000
" />
<path d="M238.0000 56.0000
L245.0000 56.0000
" />
<path d="M179.0000 140.0000
L179.0000 99.0000
" />
<path d="M232.0000 97.0000
L225.0000 97.0000
" />
<path d="M248.0000 99.0000
L255.0000 99.0000
" />
<path d="M148.0000 140.0000
L148.0000 56.0000
" />
<path d="M202.0000 97.0000
L202.0000 56.0000
" />
<path d="M209.0000 56.0000
L202.0000 56.0000
" />
<path d="M209.0000 97.0000
L209.0000 99.0000
" />
<path d="M268.0000 140.0000
L261.0000 140.0000
" />
<path d="M209.0000 140.0000
L209.0000 142.0000
" />
<path d="M179.0000 97.0000
L179.0000 56.0000
" />
<path d="M58.0000 140.0000
L46.0000 140.0000
" />
<path d="M238.0000 142.0000
L245.0000 142.0000
" />
<path d="M238.0000 97.0000
L238.0000 99.0000
" />
<path d="M192.0000 140.0000
L192.0000 142.0000
" />
<path d="M176.0000 56.0000
L176.0000 140.0000
" />
<path d="M186.0000 56.0000
L179.0000 56.0000
" />
<path d="M261.0000 56.0000
L261.0000 54.0000
" />
<path d="M192.0000 56.0000
L199.0000 56.0000
" />
<path d="M268.0000 97.0000
L261.0000 97.0000
" />
<path d="M127.0000 54.0000
L159.0000 54.0000
" />
<path d="M209.0000 97.0000
L202.0000 97.0000
" />
<path d="M127.0000 142.0000
L159.0000 142.0000
" />
<path d="M40.0000 147.0000
L40.0000 142.0000
" />
<path d="M261.0000 56.0000
L268.0000 56.0000
" />
<path d="M192.0000 142.0000
L199.0000 142.0000
" />
<path d="M261.0000 142.0000
L268.0000 142.0000
" />
<path style="fill:#000000; fill-opacity:0.0; 
stroke:#000000; stroke-width:0.1000; stroke-opacity:1; 
stroke-linecap:round; stroke-linejoin:round;fill:none"
d="M 64.0000,54.0000
121.0000,54.0000
121.0000,56.0000
64.0000,56.0000
Z" /> 
<path d="M159.0000 56.0000
L148.0000 56.0000
" />
<path d="M215.0000 142.0000
L222.0000 142.0000
" />
<path d="M186.0000 140.0000
L179.0000 140.0000
" />
<path d="M222.0000 97.0000
L215.0000 97.0000
" />
<path d="M268.0000 49.0000
L268.0000 54.0000
" />
<g >
</g>
<g >
</g>
<g >
</g>
<g >
</g>
<g >
</g>
<g >
</g>
<g >
</g>
<g >
</g>
<g >
</g>
<g >
</g>
<g >
</g>
<g >
</g>
<g >
</g>
<g >
</g>
<g >
</g>
<g >
</g>
<g >
</g>
<g >
</g>
<g >
</g>
<g >
</g>
<g >
</g>
<g >
</g>
<g >
</g>
<g >
</g>
<g >
</g>
<g >
</g>
<g >
</g>
<g >
</g>
<g >
</g>
<g >
</g>
<g >
</g>
<g >
</g>
<g >
</g>
<g >
</g>
<g >
</g>
<g >
</g>
<g >
</g>
<g >
</g>
<g >
</g>
<g >
</g>
<g >
</g>
<g >
</g>
<g >
</g>
<g >
</g>
<g >
</g>
<g >
</g>
<g >
</g>
<g >
</g>
<g >
</g>
<g >
</g>
<g >
</g>
<g >
</g>
<g >
</g>
<g >
</g>
<g >
</g>
<g >
</g>
<g >
</g>
<g >
</g>
<g >
</g>
<g >
</g>
<g >
</g>
<g >
</g>
<g >
</g>
<g >
</g>
<g >
</g>
<g >
</g>
<g >
</g>
<g >
</g>
<g >
</g>
<g >
</g>
<g >
</g>
<g >
</g>
<g >
</g>
<g >
</g>
<g >
</g>
<g >
</g>
<g >
</g>
<g >
</g>
<g >
</g>
<g >
</g>
<g >
</g>
<g >
</g>
<g >
</g>
<g >
</g>
<g >
</g>
<g >
</g>
<g >
</g>
<g >
</g>
<g >
</g>
<g >
</g>
<g >
</g>
<g >
</g>
<g >
</g>
<g >
</g>
<g >
</g>
<g >
</g>
<g >
</g>
<g >
</g>
<g >
</g>
<g >
</g>
<g >
</g>
<g >
</g>
<g >
</g>
<g >
</g>
<g >
</g>
<g >
</g>
<g >
</g>
<g >
</g>
<g >
</g>
<g >
</g>
<g >
</g>
<g >
</g>
<g >
</g>
<g >
</g>
<g >
</g>
<g >
</g>
<g >
</g>
<g >
</g>
<g >
</g>
<g >
</g>
<g >
</g>
<g >
</g>
<g >
</g>
<g >
</g>
<g >
</g>
<g >
</g>
<g >
</g>
<g >
</g>
<g >
</g>
<g >
</g>
<g >
</g>
<g >
</g>
<g >
</g>
<g >
</g>
<g >
</g>
<g >
</g>
<g >
</g>
<g >
</g>
<g >
</g>
<g >
</g>
<g >
</g>
<g >
</g>
<g >
</g>
<g >
</g>
<g >
</g>
<g >
</g>
<g >
</g>
<g >
</g>
<g >
</g>
<g >
</g>
<g >
</g>
<g >
</g>
<g >
</g>
<g >
</g>
<g >
</g>
<g >
</g>
<g >
</g>
<g >
</g>
<g >
</g>
<g >
</g>
<g >
</g>
<g >
</g>
<g >
</g>
<g >
</g>
<g >
</g>
<g >
</g>
<g >
</g>
<g >
</g>
<g >
</g>
<g >
</g>
<g >
</g>
<g >
</g>
<g >
</g>
<g >
</g>
<g >
</g>
<g >
</g>
<g >
</g>
<g >
</g>
<g >
</g>
<g >
</g>
<g >
</g>
<g >
</g>
<g >
</g>
<g >
</g>
<g >
</g>
<g >
</g>
<g >
</g>
<g >
</g>
<g >
</g>
<g >
</g>
<g >
</g>
<g >
</g>
<g >
</g>
<g >
</g>
<g >
</g>
<g >
</g>
<g >
</g>
<g >
</g>
<g >
</g>
<g >
</g>
<g >
</g>
<g >
</g>
<g >
</g>
<g >
</g>
<g >
</g>
<g >
</g>
<g >
</g>
<g >
</g>
<g >
</g>
<g >
</g>
<g >
</g>
<g >
</g>
<g >
</g>
<g >
</g>
<g >
</g>
<g >
</g>
<g >
</g>
<g >
</g>
<g >
</g>
<g >
</g>
<g >
</g>
<g >
</g>
<g >
</g>
<g >
</g>
<g >
</g>
<g >
</g>
<g >
</g>
<g >
</g>
<g >
</g>
<g >
</g>
<g >
</g>
<g >
</g>
<g >
</g>
<g >
</g>
<g >
</g>
<g >
</g>
<g >
</g>
<g >
</g>
<g >
</g>
<g >
</g>
<g >
</g>
<g >
</g>
<g >
</g>
<g >
</g>
<g >
</g>
<g >
</g>
<g >
</g>
<g >
</g>
<g >
</g>
<g >
</g>
<g >
</g>
<g >
</g>
<g >
</g>
<g >
</g>
<g >
</g>
<g >
</g>
<g >
</g>
<g >
</g>
<g >
</g>
<g >
</g>
<g >
</g>
<g >
</g>
<g >
</g>
<g >
</g>
<g >
</g>
<g >
</g>
<g >
</g>
<g >
</g>
<g >
</g>
<g >
</g>
<g >
</g>
<g >
</g>
<g >
</g>
<g >
</g>
<g >
</g>
<g >
</g>
<g >
</g>
<g >
</g>
<g >
</g>
<g >
</g>
<g >
</g>
<g >
</g>
<g >
</g>
<g >
</g>
<g >
</g>
<g >
</g>
<g >
</g>
<g >
</g>
<g >
</g>
<g >
</g>
<g >
</g>
<g >
</g>
<g >
</g>
<g >
</g>
<g >
</g>
<g >
</g>
</g> 
</svg>
